{
  "accessors": [
    {
      "bufferView": 1,
      "componentType": 5126,
      "count": 65533,
      "max": [
        49.516815185546875,
        35.071685791015625,
        38.291778564453125
      ],
      "min": [
        -6.4667072296142578,
        -48.992053985595703,
        -1.7847747802734375
      ],
      "type": "VEC3"
    },
    {
      "bufferView": 1,
      "byteOffset": 786396,
      "componentType": 5126,
      "count": 65533,
      "max": [
        1,
        1,
        0.99997103214263916
      ],
      "min": [
        -1,
        -1,
        -0.99999845027923584
      ],
      "type": "VEC3"
    },
    {
      "bufferView": 0,
      "componentType": 5125,
      "count": 181122,
      "max": [
        65532
      ],
      "min": [
        0
      ],
      "type": "SCALAR"
    },
    {
      "bufferView": 1,
      "byteOffset": 1572792,
      "componentType": 5126,
      "count": 65534,
      "max": [
        54.284080505371094,
        35.11236572265625,
        39.59417724609375
      ],
      "min": [
        -11.989601135253906,
        -49.867954254150391,
        16.911771774291992
      ],
      "type": "VEC3"
    },
    {
      "bufferView": 1,
      "byteOffset": 2359200,
      "componentType": 5126,
      "count": 65534,
      "max": [
        0.99999970197677612,
        1,
        1
      ],
      "min": [
        -0.99999970197677612,
        -1,
        -1
      ],
      "type": "VEC3"
    },
    {
      "bufferView": 0,
      "byteOffset": 724488,
      "componentType": 5125,
      "count": 162399,
      "max": [
        65533
      ],
      "min": [
        0
      ],
      "type": "SCALAR"
    },
    {
      "bufferView": 1,
      "byteOffset": 3145608,
      "componentType": 5126,
      "count": 65533,
      "max": [
        53.303253173828125,
        35.184288024902344,
        39.637626647949219
      ],
      "min": [
        -13.523540496826172,
        -46.856231689453125,
        25.0858154296875
      ],
      "type": "VEC3"
    },
    {
      "bufferView": 1,
      "byteOffset": 3932004,
      "componentType": 5126,
      "count": 65533,
      "max": [
        1,
        0.99999994039535522,
        0.99999904632568359
      ],
      "min": [
        -1,
        -0.99999994039535522,
        -0.99999904632568359
      ],
      "type": "VEC3"
    },
    {
      "bufferView": 0,
      "byteOffset": 1374084,
      "componentType": 5125,
      "count": 138621,
      "max": [
        65532
      ],
      "min": [
        0
      ],
      "type": "SCALAR"
    },
    {
      "bufferView": 1,
      "byteOffset": 4718400,
      "componentType": 5126,
      "count": 54424,
      "max": [
        53.716651916503906,
        35.213638305664062,
        39.720741271972656
      ],
      "min": [
        -13.574281692504883,
        -43.630306243896484,
        33.054191589355469
      ],
      "type": "VEC3"
    },
    {
      "bufferView": 1,
      "byteOffset": 5371488,
      "componentType": 5126,
      "count": 54424,
      "max": [
        1,
        0.99999994039535522,
        0.99999970197677612
      ],
      "min": [
        -1,
        -0.99999994039535522,
        -0.99999970197677612
      ],
      "type": "VEC3"
    },
    {
      "bufferView": 0,
      "byteOffset": 1928568,
      "componentType": 5125,
      "count": 101280,
      "max": [
        54423
      ],
      "min": [
        0
      ],
      "type": "SCALAR"
    }
  ],
  "asset": {
    "extras": {
      "author": "iprototypedit.com (https://sketchfab.com/iprototypedit.com)",
      "license": "CC-BY-4.0 (http://creativecommons.org/licenses/by/4.0/)",
      "source": "https://sketchfab.com/3d-models/dental-fracture-lq-6363f23666974b2184b2ab04bbea1930",
      "title": "Dental Fracture LQ"
    },
    "generator": "Sketchfab-6.22.0",
    "version": "2.0"
  },
  "bufferViews": [
    {
      "buffer": 0,
      "byteLength": 2333688,
      "byteOffset": 0,
      "name": "floatBufferViews",
      "target": 34963
    },
    {
      "buffer": 0,
      "byteLength": 6024576,
      "byteOffset": 2333688,
      "byteStride": 12,
      "name": "floatBufferViews",
      "target": 34962
    }
  ],
  "buffers": [
    {
      "byteLength": 8358264,
      "uri": "scene.bin"
    }
  ],
  "materials": [
    {
      "doubleSided": true,
      "emissiveFactor": [
        0,
        0,
        0
      ],
      "name": "Scene_-_Root",
      "pbrMetallicRoughness": {
        "baseColorFactor": [
          0.5,
          0.5,
          0.5,
          1
        ],
        "metallicFactor": 0,
        "roughnessFactor": 0.59999999999999998
      }
    }
  ],
  "meshes": [
    {
      "primitives": [
        {
          "attributes": {
            "NORMAL": 1,
            "POSITION": 0
          },
          "indices": 2,
          "material": 0,
          "mode": 4
        }
      ]
    },
    {
      "primitives": [
        {
          "attributes": {
            "NORMAL": 4,
            "POSITION": 3
          },
          "indices": 5,
          "material": 0,
          "mode": 4
        }
      ]
    },
    {
      "primitives": [
        {
          "attributes": {
            "NORMAL": 7,
            "POSITION": 6
          },
          "indices": 8,
          "material": 0,
          "mode": 4
        }
      ]
    },
    {
      "primitives": [
        {
          "attributes": {
            "NORMAL": 10,
            "POSITION": 9
          },
          "indices": 11,
          "material": 0,
          "mode": 4
        }
      ]
    }
  ],
  "nodes": [
    {
      "children": [
        1
      ],
      "name": "RootNode (gltf orientation matrix)",
      "rotation": [
        -0.70710678118654746,
        -0,
        -0,
        0.70710678118654757
      ]
    },
    {
      "children": [
        2
      ],
      "name": "RootNode (model correction matrix)"
    },
    {
      "children": [
        3,
        4,
        5,
        6
      ],
      "name": "dfe2eedcb231449a843cfd7360a2c922.stl.cleaner"
    },
    {
      "mesh": 0,
      "name": ""
    },
    {
      "mesh": 1,
      "name": ""
    },
    {
      "mesh": 2,
      "name": ""
    },
    {
      "mesh": 3,
      "name": ""
    }
  ],
  "scene": 0,
  "scenes": [
    {
      "name": "OSG_Scene",
      "nodes": [
        0
      ]
    }
  ]
}

